
	<svg xmlns="http://www.w3.org/2000/svg" xmlns:xlink="http://www.w3.org/1999/xlink" version="1.1" width="128" height="128" viewBox="0 0 100 100">


		<defs>
			false
			
	<linearGradient id="background-gradient" x1="0" y1="0" y2="1" x2="0" >
		<stop stop-color="#fff" offset="0%"/>
		<stop stop-color="#000" offset="100%"/>
	</linearGradient>

			
			
			<g transform="scale(3.3333333333333335)" id="picture"><path d="M15.1 7.5c1.4 0 2.9-.8 2.9-2.5C18 2.6 14.9.2 14.8.1c-.2-.1-.4-.1-.6 0s-.2.4-.2.6c0 0 .5 1.2.5 2.3 0 .2-.1.3-.6.6-.6.3-1.4.7-1.4 1.9 0 1.1 1.1 2 2.6 2zM24.5 29h-.7L22 26.3 19.2 17h.3c.3 0 .5-.2.5-.5s-.2-.5-.5-.5h-.6l-1.7-6h.3c.3 0 .5-.2.5-.5s-.2-.5-.5-.5h-5c-.3 0-.5.2-.5.5s.2.5.5.5h.3l-1.7 6h-.6c-.3 0-.5.2-.5.5s.2.5.5.5h.3L8 26.3 6.2 29h-.7c-.3 0-.5.2-.5.5s.2.5.5.5h19c.3 0 .5-.2.5-.5s-.2-.5-.5-.5zm-14.4-6.1l2.4 3.1H9.2l.9-3.1zm.5-.9l2.4-3.8V25l-2.4-3zm3.4-5h2v9h-2v-9zm3 1.2l2.4 3.8-2.4 3v-6.8zm2.9 4.7l.9 3.1h-3.3l2.4-3.1zm-1.1-3.8L17.4 17h.7l.7 2.1zM17 16v-2.9l.8 2.9H17zm-1-6v6h-2v-6h2zm-3 3.1V16h-.8l.8-2.9zm-.4 3.9l-1.4 2.1.6-2.1h.8zM7.4 29l1.3-2h12.4l1.3 2h-15z"/></g>
			
	<linearGradient id="picture-gradient" x1="0" y1="0" y2="1" x2="0" >
		<stop stop-color="#9348de" offset="0%"/>
		<stop stop-color="#0f0732" offset="100%"/>
	</linearGradient>

		</defs>

		

			<use xlink:href="#background" fill="url(#background-gradient)" />

		

			<g mask="url(#mask)">
				<g transform="
				        translate(
                                50 50
)
                            translate(0 0)  scale(0.5)  
                            translate(
                                -50 -50
)">
						<use xlink:href="#picture" fill="url(#picture-gradient)"  />
				</g>
			</g>

		



	</svg>
