
	<svg xmlns="http://www.w3.org/2000/svg" xmlns:xlink="http://www.w3.org/1999/xlink" version="1.1" width="128" height="128" viewBox="0 0 100 100">


		<defs>
			false
			
	<linearGradient id="background-gradient" x1="0" y1="0" y2="1" x2="0" >
		<stop stop-color="#fff" offset="0%"/>
		<stop stop-color="#000" offset="100%"/>
	</linearGradient>

			
			
			<g transform="scale(3.4482758620689653) translate(-0.5 -0.5)" id="picture"><path d="M.5 15C.5 23 7 29.5 15 29.5S29.5 23 29.5 15 23 .5 15 .5.5 7 .5 15zM19 5.5c.3 0 .5.2.5.5v9.5H24c.2 0 .4.1.5.3v.2c0 .1-.1.3-.1.4l-9 9c-.2.2-.5.2-.7 0l-9-9c-.1-.1-.2-.4-.1-.5.1-.2.3-.3.5-.3h4.5V6c0-.3.2-.5.5-.5H19z"/></g>
			
	<linearGradient id="picture-gradient" x1="0" y1="0" y2="1" x2="0" >
		<stop stop-color="#7b2cf6" offset="0%"/>
		<stop stop-color="#00fff7" offset="100%"/>
	</linearGradient>

		</defs>

		

			<use xlink:href="#background" fill="url(#background-gradient)" />

		

			<g mask="url(#mask)">
				<g transform="
				        translate(
                                50 50
)
                            translate(0 0)  scale(0.5)  
                            translate(
                                -50 -50
)">
						<use xlink:href="#picture" fill="url(#picture-gradient)"  />
				</g>
			</g>

		



	</svg>
