
	<svg xmlns="http://www.w3.org/2000/svg" xmlns:xlink="http://www.w3.org/1999/xlink" version="1.1" width="128" height="128" viewBox="0 0 100 100">


		<defs>
			false
			
	<linearGradient id="background-gradient" x1="0" y1="0" y2="1" x2="0" >
		<stop stop-color="#fff" offset="0%"/>
		<stop stop-color="#000" offset="100%"/>
	</linearGradient>

			
			
			<g transform="scale(3.4482758620689653) translate(-0.5 -0.5)" id="picture"><path d="M29.2 2c-.2 0-.4 0-.6.1L15 15.8 1.4 2.1C1.2 2 1 2 .8 2c-.2.1-.3.3-.3.5v11c0 .1.1.3.1.4l14 14c.1.1.3.1.4.1s.3 0 .4-.1l14-14c.1-.1.1-.2.1-.4v-11c0-.2-.1-.4-.3-.5z"/></g>
			
	<linearGradient id="picture-gradient" x1="0" y1="0" y2="1" x2="0" >
		<stop stop-color="#aa50e8" offset="0%"/>
		<stop stop-color="#00c1ff" offset="100%"/>
	</linearGradient>

		</defs>

		

			<use xlink:href="#background" fill="url(#background-gradient)" />

		

			<g mask="url(#mask)">
				<g transform="
				        translate(
                                50 50
)
                            translate(0 0)  scale(0.5)  
                            translate(
                                -50 -50
)">
						<use xlink:href="#picture" fill="url(#picture-gradient)"  />
				</g>
			</g>

		



	</svg>
