
	<svg xmlns="http://www.w3.org/2000/svg" xmlns:xlink="http://www.w3.org/1999/xlink" version="1.1" width="128" height="128" viewBox="0 0 100 100">


		<defs>
			<linearGradient id="Gradient_1" gradientUnits="userSpaceOnUse" x1="50" y1="7" x2="50" y2="55.2625" spreadMethod="pad">
<stop offset="0%" stop-color="#FFFFFF" stop-opacity="0.1"/>

<stop offset="100%" stop-color="#FFFFFF" stop-opacity="0.7"/>
</linearGradient><linearGradient id="Gradient_2" gradientUnits="userSpaceOnUse" x1="100" y1="51" x2="25" y2="50.85" spreadMethod="pad">
<stop offset="0%" stop-color="#FFFFFF" stop-opacity="0.1"/>

<stop offset="100%" stop-color="#FFFFFF" stop-opacity="0.7"/>
</linearGradient><linearGradient id="Gradient_3" gradientUnits="userSpaceOnUse" x1="0" y1="51" x2="77" y2="51" spreadMethod="pad">
<stop offset="0%" stop-color="#FFFFFF" stop-opacity="0.1"/>

<stop offset="100%" stop-color="#FFFFFF" stop-opacity="0.7"/>
</linearGradient><g id="background">
<path fill="url(#background-gradient)" stroke="none" d=" M 99.15 55 Q 100 53.5 100 51.55 100 49.6 99.15 48.1 L 77.55 10.45 Q 76.7 9 75 8.05 73.3 7 71.6 7 L 28.35 7 Q 26.7 7 25 8.05 23.3 9 22.45 10.45 L 0.8 48.1 Q 0 49.6 0 51.55 0 53.5 0.8 55 L 22.45 92.65 Q 23.3 94.1 25 95.1 26.7 96.05 28.35 96.05 L 71.6 96.05 Q 73.3 96.05 75 95.05 76.7 94.1 77.55 92.65 L 99.15 55 M 96.5 49.65 Q 96.9 50.4 96.9 51.55 96.9 52.7 96.5 53.4 L 74.9 91.1 Q 74.45 91.85 73.5 92.45 72.45 93 71.6 93 L 28.35 93 Q 27.5 93 26.5 92.45 25.5 91.85 25.1 91.1 L 3.5 53.4 Q 3.05 52.7 3.05 51.55 3.05 50.4 3.5 49.65 L 25.1 12 Q 25.5 11.25 26.5 10.65 27.5 10.1 28.35 10.1 L 71.6 10.1 Q 72.45 10.1 73.5 10.65 74.45 11.25 74.9 12 L 96.5 49.65 Z"/>
</g><mask id="mask">
<path fill="#FFFFFF" stroke="none" d=" M 96.9 51.55 Q 96.9 50.4 96.5 49.65 L 74.9 12 Q 74.45 11.25 73.5 10.65 72.45 10.1 71.6 10.1 L 28.35 10.1 Q 27.5 10.1 26.5 10.65 25.5 11.25 25.1 12 L 3.5 49.65 Q 3.05 50.4 3.05 51.55 3.05 52.7 3.5 53.4 L 25.1 91.1 Q 25.5 91.85 26.5 92.45 27.5 93 28.35 93 L 71.6 93 Q 72.45 93 73.5 92.45 74.45 91.85 74.9 91.1 L 96.5 53.4 Q 96.9 52.7 96.9 51.55 Z"/>
</mask><g id="gloss-top">
<path fill="url(#Gradient_1)" stroke="none" d=" M 96.5 53.4 L 95.45 55.25 Q 98 52.85 99.9 50.3 99.7 49 99.15 48.1 L 77.55 10.45 Q 76.7 9 75 8.05 73.3 7 71.6 7 L 28.35 7 Q 26.7 7 25 8.05 23.3 9 22.45 10.45 L 0.8 48.1 Q 0.3 49.05 0.1 50.3 1.95 52.85 4.55 55.25 L 3.5 53.4 Q 3.05 52.7 3.05 51.55 3.05 50.4 3.5 49.65 L 25.1 12 Q 25.5 11.25 26.5 10.65 27.5 10.1 28.35 10.1 L 71.6 10.1 Q 72.45 10.1 73.5 10.65 74.45 11.25 74.9 12 L 96.5 49.65 Q 96.9 50.4 96.9 51.55 96.9 52.7 96.5 53.4 Z"/>
</g><g id="gloss-right">
<path fill="url(#Gradient_2)" stroke="none" d=" M 99.15 55 Q 100 53.5 100 51.55 100 49.6 99.15 48.1 L 77.55 10.45 Q 76.7 9 75 8.05 73.3 7 71.6 7 L 28.35 7 Q 26.75 7 25.1 7.95 L 26.65 10.6 Q 27.6 10.1 28.35 10.1 L 71.6 10.1 Q 72.45 10.1 73.5 10.65 74.45 11.25 74.9 12 L 96.5 49.65 Q 96.9 50.4 96.9 51.55 96.9 52.7 96.5 53.4 L 74.9 91.1 Q 74.65 91.5 74.05 92 L 75.65 94.7 Q 76.9 93.7 77.55 92.65 L 99.15 55 Z"/>
</g><g id="gloss-left">
<path fill="url(#Gradient_3)" stroke="none" d=" M 75.75 13.5 L 77.6 10.55 77.55 10.45 Q 76.7 9 75 8.05 73.3 7 71.6 7 L 28.35 7 Q 26.7 7 25 8.05 23.3 9 22.45 10.45 L 0.8 48.1 Q 0 49.6 0 51.55 0 53.5 0.8 55 L 22.45 92.65 Q 23.2 93.95 24.55 94.85 L 26.2 92.25 Q 25.45 91.65 25.1 91.1 L 3.5 53.4 Q 3.05 52.7 3.05 51.55 3.05 50.4 3.5 49.65 L 25.1 12 Q 25.5 11.25 26.5 10.65 27.5 10.1 28.35 10.1 L 71.6 10.1 Q 72.45 10.1 73.5 10.65 74.45 11.25 74.9 12 L 75.75 13.5 Z"/>
</g>
			
	<linearGradient id="background-gradient" x1="0" y1="0" y2="1" x2="0" >
		<stop stop-color="#fcbcbc" offset="0%"/>
		<stop stop-color="#5488f8" offset="100%"/>
	</linearGradient>

			
			
			<g transform="scale(3.3333333333333335)" id="picture"><path d="M20.5 17c-.1 0-.2 0-.2-.1-.2-.1-.3-.3-.3-.5l.9-4.4h-.4c-.3 0-.5-.2-.5-.5s.2-.5.5-.5h1c.2 0 .3.1.4.2s.1.3.1.4l-.6 3.2 3.3-3.6c.1-.1.2-.2.4-.2h2c1.1 0 2-.9 2-2V3c0-1.1-.9-2-2-2H14c-1.1 0-2 .9-2 2v1.5c0 .3-.2.5-.5.5s-.5-.2-.5-.5V3c0-1.7 1.3-3 3-3h13c1.7 0 3 1.3 3 3v6c0 1.7-1.3 3-3 3h-1.8l-4.4 4.8c0 .1-.2.2-.3.2z M23.5 30H.5c-.3 0-.5-.2-.5-.5 0-2.6 1.8-4.8 4.3-5.5l3.8-1 .3-1.4c-1-1-1.6-2.3-1.8-3.7-.6-.1-1.1-.6-1.2-1.3l-.3-2c-.1-.4.1-.9.4-1.2.2-.2.4-.4.7-.4-.1-.5-.2-1.6-.2-2 0-1.9.6-3.9 4.8-4 1.5-1 3.1-1 3.8-1 1.8 0 3 .6 3.8 1.7 1 1.5.5 2.5-.1 3.1l-.3.4-.1 1.9c.2.1.4.2.6.4.3.3.4.7.4 1.2l-.3 2c-.1.6-.5 1.1-1.1 1.3-.2 1.4-.9 2.8-1.9 3.8l.3 1.3 3.8 1c2.5.6 4.3 2.9 4.3 5.5 0 .2-.2.4-.5.4zM1 29h22c-.2-1.9-1.6-3.5-3.5-4l-4.1-1c-.2 0-.3-.2-.4-.4l-.5-1.9c0-.2 0-.4.2-.5 1.1-1 1.8-2.4 1.9-3.8 0-.3.2-.5.5-.5s.5-.2.5-.4l.3-2c0-.1 0-.3-.1-.4-.1-.1-.2-.2-.4-.2-.1 0-.3-.1-.4-.2s-.1-.2-.1-.4L17 11c0-.1.1-.2.1-.3l.5-.5c.3-.3.6-.9-.1-1.9C17 7.4 16 7 14.6 7c-1 0-2.2.1-3.3.9-.1.1-.2.1-.3.1-3.7 0-4 1.4-4 3 0 .5.2 1.9.2 2.4 0 .1 0 .3-.1.4-.1.1-.2.2-.4.2h-.1c-.1 0-.3.1-.4.2s-.1.2-.1.4l.3 2c0 .3.2.4.5.4H7c.3 0 .5.2.5.5.1 1.4.8 2.8 1.8 3.7.1.1.2.3.1.5l-.5 2c0 .2-.2.3-.4.4l-4.1 1c-1.8.4-3.2 2-3.4 3.9z"/></g>
			
	<linearGradient id="picture-gradient" x1="0" y1="0" y2="1" x2="0" >
		<stop stop-color="#fff" offset="0%"/>
		<stop stop-color="#071ad2" offset="100%"/>
	</linearGradient>

		</defs>

		

			<use xlink:href="#background" fill="url(#background-gradient)" />

		

			<g mask="url(#mask)">
				<g transform="
				        translate(
                                50 50
)
                            translate(0 0)  scale(0.5)  
                            translate(
                                -50 -50
)">
						<use xlink:href="#picture" fill="url(#picture-gradient)"  />
				</g>
			</g>

		

			<use xlink:href="#gloss-top" opacity="1" />


	</svg>
