
	<svg xmlns="http://www.w3.org/2000/svg" xmlns:xlink="http://www.w3.org/1999/xlink" version="1.1" width="128" height="128" viewBox="0 0 100 100">


		<defs>
			false
			
	<linearGradient id="background-gradient" x1="0" y1="0" y2="1" x2="0" >
		<stop stop-color="#fff" offset="0%"/>
		<stop stop-color="#000" offset="100%"/>
	</linearGradient>

			
			
			<g transform="scale(3.3112586127536208) translate(0.10000000149011612 0.14999806880950928)" id="picture"><path d="M29.8 20.6s-4.5-3.1-7.5-5.3c-2.5-1.9-2.4-4.5-2.3-6.4v-.8C20 5.7 17.9.6 11.3.6 9.5.6 7.9.7 6.7.9c-.3-.1-.4.1-.4.3s.1.4.3.5h.2l3 1.4c1.1.5 1.9 1.6 2 2.8l.1 1V7c.2.5.2 1 .1 1.6v.3c.1 1.2-.5 2.4-1.6 3.1 0 0-.1 0-.1.1-.4.4-.9.7-1.4.9 0 0-.1 0-.1.1l-1.1.7c-1 .6-2.3.7-3.4.3l-3-1.4-.1.3h-.1v-.4c-.2-.1-.4-.1-.5.1-.2.1-.2.3-.2.5.5 1.8 1.5 4.3 3.7 6.1 1.7 1.4 4 2 7.9 2 3.1 0 5.8 2.1 5.8 2.2l7.3 5.7c.1.1.2.1.3.1h.1c.1 0 .3-.1.3-.3l4-8c.3 0 .2-.3 0-.4z M1.7 11.9l3 1.4c.3.1.7.2 1.1.2.5 0 1-.1 1.4-.4l2.8-1.8c.7-.5 1.2-1.3 1.1-2.1L10.7 6c-.1-.8-.6-1.6-1.4-2l-3-1.4c-.8-.2-1.7-.2-2.5.3L1.1 4.7C.4 5.2-.1 6 0 6.8L.3 10c0 .8.6 1.6 1.4 1.9zM4 8c0-.8.7-1.5 1.5-1.5S7 7.2 7 8s-.7 1.5-1.5 1.5S4 8.8 4 8z"/></g>
			
	<linearGradient id="picture-gradient" x1="0" y1="0" y2="1" x2="0" >
		<stop stop-color="#9348de" offset="0%"/>
		<stop stop-color="#0f0732" offset="100%"/>
	</linearGradient>

		</defs>

		

			<use xlink:href="#background" fill="url(#background-gradient)" />

		

			<g mask="url(#mask)">
				<g transform="
				        translate(
                                50 50
)
                            translate(0 0)  scale(0.5)  
                            translate(
                                -50 -50
)">
						<use xlink:href="#picture" fill="url(#picture-gradient)"  />
				</g>
			</g>

		



	</svg>
