
	<svg xmlns="http://www.w3.org/2000/svg" xmlns:xlink="http://www.w3.org/1999/xlink" version="1.1" width="128" height="128" viewBox="0 0 100 100">


		<defs>
			false
			
	<linearGradient id="background-gradient" x1="0" y1="0" y2="1" x2="0" >
		<stop stop-color="#fff" offset="0%"/>
		<stop stop-color="#000" offset="100%"/>
	</linearGradient>

			
			
			<g transform="scale(3.3333333333333335) translate(3.000000238418579 0)" id="picture"><path d="M22.8 18.8l-6.5-3c1.1-1.3 1.7-3 1.7-4.9 0-.6-.1-1.1-.2-1.7 2.1-.5 3.2-1.4 3.2-2.6 0-1.1-1.1-1.9-3.8-2.6-.3-2.2-2.5-4-5.2-4S7.1 1.8 6.8 4.1C4.1 4.8 3 5.5 3 6.6c0 1.2 1.1 2.1 3.2 2.7-.1.6-.2 1.1-.2 1.7 0 1.9.6 3.6 1.7 4.9l-6.5 3c-.7.3-1.2 1-1.2 1.8V29c0 .6.4 1 1 1h22c.6 0 1-.4 1-1v-8.4c0-.7-.5-1.5-1.2-1.8zM19 28H5v-3.5c0-.3.2-.5.5-.5h13c.3 0 .5.2.5.5V28zM7 23v-4.6l2.4-1.1c.8.4 1.7.7 2.6.7s1.8-.3 2.6-.7l2.4 1.1V23H7zM8.2 9.7c1.1.2 2.5.3 3.8.3s2.7-.1 3.8-.3c.1.4.2.9.2 1.3 0 1.8-.8 3.4-2 4.3s-2.7.9-3.9 0c-1.3-.9-2-2.6-2-4.3-.1-.4 0-.9.1-1.3zM8 5.9c.5-.1.8-.5.8-1v-.1C8.8 3.2 10.2 2 12 2s3.2 1.2 3.3 2.7v.1c0 .5.3.9.8 1 1.6.4 2.4.7 2.8.9-.3.2-.9.5-1.9.7-2.7.7-7.1.7-9.8 0-1-.3-1.6-.5-1.9-.7.3-.1 1.1-.5 2.7-.8zM2 20.6l4-1.8V23h-.5c-.8 0-1.5.7-1.5 1.5V28H2v-7.4zM22 28h-2v-3.5c0-.8-.7-1.5-1.5-1.5H18v-4.2l4 1.8V28z M7 25c-.6 0-1 .4-1 1s.4 1 1 1 1-.4 1-1-.4-1-1-1zm0 1v-.5.5zm10-1c-.6 0-1 .4-1 1s.4 1 1 1 1-.4 1-1-.4-1-1-1zm0 1v-.5.5z"/></g>
			
	<linearGradient id="picture-gradient" x1="0" y1="0" y2="1" x2="0" >
		<stop stop-color="#9348de" offset="0%"/>
		<stop stop-color="#0f0732" offset="100%"/>
	</linearGradient>

		</defs>

		

			<use xlink:href="#background" fill="url(#background-gradient)" />

		

			<g mask="url(#mask)">
				<g transform="
				        translate(
                                50 50
)
                            translate(0 0)  scale(0.5)  
                            translate(
                                -50 -50
)">
						<use xlink:href="#picture" fill="url(#picture-gradient)"  />
				</g>
			</g>

		



	</svg>
